<?xml version="1.0" encoding="UTF-8"?>
<!DOCTYPE svg PUBLIC "-//W3C//DTD SVG 1.1//EN" "http://www.w3.org/Graphics/SVG/1.1/DTD/svg11.dtd">
<!-- Creator: CorelDRAW 2020 (64-Bit) -->
<svg xmlns="http://www.w3.org/2000/svg" xml:space="preserve" width="211.667mm" height="211.667mm" version="1.1" style="shape-rendering:geometricPrecision; text-rendering:geometricPrecision; image-rendering:optimizeQuality; fill-rule:evenodd; clip-rule:evenodd"
viewBox="0 0 21166.66 21166.66"
 xmlns:xlink="http://www.w3.org/1999/xlink"
 xmlns:xodm="http://www.corel.com/coreldraw/odm/2003">
 <defs>
  <style type="text/css">
   <![CDATA[
    .str0 {stroke:black;stroke-width:396.87;stroke-linecap:round;stroke-linejoin:round;stroke-miterlimit:22.9256}
    .fil2 {fill:none}
    .fil4 {fill:black}
    .fil0 {fill:#F0C652}
    .fil1 {fill:white}
    .fil3 {fill:black;fill-rule:nonzero}
   ]]>
  </style>
 </defs>
 <g id="Layer_x0020_1">
  <metadata id="CorelCorpID_0Corel-Layer"/>
  <rect id="BG" class="fil0" width="21166.66" height="21166.66"/>
  <g id="Housa">
   <polygon class="fil1 str0" points="10583.33,4280.1 15186.64,4280.1 16930.32,7645.13 15376,7645.13 15376,13976.18 12449.97,13976.18 11989.71,10810.66 10583.33,10810.66 9176.95,10810.66 8716.69,13976.18 5790.67,13976.18 5790.67,7645.13 4236.34,7645.13 5980.02,4280.1 "/>
   <line class="fil2 str0" x1="14178.22" y1="7645.13" x2="15376" y2= "7645.13" />
   <line class="fil2 str0" x1="5790.66" y1="7645.13" x2="6988.44" y2= "7645.13" />
  </g>
  <g id="Move">
   <line class="fil2 str0" x1="7596.55" y1="8824.66" x2="7596.55" y2= "10400.06" />
   <line class="fil2 str0" x1="6808.84" y1="9612.36" x2="8384.26" y2= "9612.36" />
  </g>
  <path class="fil3" d="M6671.04 14565.47l-262.68 0 -516.36 635.11 0 -635.11 -210.51 0 0 1259.42 210.51 0 0 -345.44 118.74 -133.14 388.62 478.58 275.28 0 -523.56 -618.91 519.96 -640.51zm809.62 1259.42l226.7 0 -503.77 -1295.4 -501.97 1295.4 226.7 0 53.97 -145.73 442.6 0 55.77 145.73zm-277.07 -764.65l152.93 437.2 -305.86 0 152.93 -437.2zm2009.68 -496.57l-214.11 0 -458.78 980.55 -478.58 -980.55 -214.1 0 0 1261.22 210.5 0 0 -789.84 385.02 789.84 197.91 0 361.63 -773.64 0 773.64 210.51 0 0 -1261.22zm705.27 1.8l-421.01 0 0 1263.02 210.51 0 0 -525.36 210.5 0c0,0 421.01,0 421.01,-368.83 0,-368.83 -421.01,-368.83 -421.01,-368.83zm0 527.16l-210.5 0 0 -316.66 210.5 0c0,0 210.5,0 210.5,158.33 0,158.33 -210.5,158.33 -210.5,158.33zm1194.65 -543.35c-829.42,0 -831.22,1291.8 0,1291.8 827.62,0 825.82,-1291.8 0,-1291.8zm0 1088.5c-545.15,0 -543.35,-883.4 0,-883.4 545.15,0 545.15,883.4 0,883.4zm1702.02 -861.81l0 -210.5 -840.22 0 0 1259.42 840.22 0 0 -210.5 -629.71 0 0 -314.86 523.56 0 0 -208.7 -523.56 0 0 -314.86 629.71 0zm1266.61 -210.5l-208.7 0 0 895.99 -627.91 -895.99 -212.31 0 0 1259.42 210.51 0 0 -895.99 626.11 895.99 212.3 0 0 -1259.42zm858.2 543.35l0 185.31 334.65 0 0 196.11c-77.37,88.16 -188.92,142.14 -314.86,142.14 -232.09,0 -419.21,-129.54 -419.21,-437.2 0,-275.27 187.12,-437.2 419.21,-437.2 115.15,0 221.3,46.78 296.86,122.35l147.54 -147.54c-113.35,-115.14 -269.88,-185.31 -444.4,-185.31 -347.24,0 -629.71,273.47 -629.71,647.7 0,412.01 264.48,647.7 602.72,647.7 149.33,0 255.49,-35.98 358.04,-131.34l10.79 115.15 183.52 0 0 -717.87 -545.15 0z"/>
  <path class="fil3" d="M7150.84 17006.12l0 310.64 327.43 0 0 282.66c-120.34,137.13 -293.85,221.09 -489.75,221.09 -361.02,0 -652.08,-201.5 -652.08,-680.06 0,-428.19 291.06,-680.06 652.08,-680.06 179.11,0 344.23,72.76 461.77,190.31l229.48 -229.49c-176.31,-179.11 -419.79,-288.26 -691.25,-288.26 -540.13,0 -979.51,425.39 -979.51,1007.5 0,640.88 411.39,1007.5 937.53,1007.5 232.28,0 397.4,-55.98 556.92,-204.3l16.79 184.71 285.46 0 0 -1122.24 -654.87 0zm2070.96 1113.84l352.63 0 -783.61 -2014.99 -780.81 2014.99 352.62 0 83.96 -226.69 688.46 0 86.75 226.69zm-430.98 -1189.4l237.88 680.05 -475.76 0 237.88 -680.05zm3126.04 -772.42l-333.04 0 -713.64 1525.24 -744.43 -1525.24 -333.03 0 0 1961.82 327.44 0 0 -1228.59 598.9 1228.59 307.84 0 562.52 -1203.4 0 1203.4 327.44 0 0 -1961.82zm1749.13 330.24l0 -327.44 -1306.95 0 0 1959.02 1306.95 0 0 -327.44 -979.51 0 0 -489.75 814.39 0 0 -324.64 -814.39 0 0 -489.75 979.51 0zm881.56 1659.57c316.24,0 610.09,-201.5 610.09,-576.52 0,-232.28 -111.94,-430.98 -319.04,-526.13 -139.93,-64.37 -277.06,-64.37 -291.05,-64.37 -145.53,0 -285.46,-86.76 -285.46,-249.08 0,-181.9 131.53,-271.46 285.46,-271.46 148.32,0 274.26,72.76 279.86,235.08l324.64 0c-5.6,-333.03 -265.87,-562.52 -604.5,-562.52 -316.24,0 -612.9,226.69 -612.9,598.9 0,232.29 114.75,405.8 319.04,500.95 142.73,64.37 277.07,64.37 293.86,64.37 131.53,5.6 285.45,109.15 285.45,274.26 0,153.93 -134.33,249.08 -285.45,249.08 -145.53,0 -279.86,-81.16 -285.46,-243.48l-327.44 0c5.6,366.62 274.27,562.52 612.9,570.92z"/>
  <g id="Buttons2">
   <circle class="fil4" cx="13570.11" cy="8983.11" r="362.1"/>
   <circle class="fil4" cx="13570.11" cy="10241.61" r="362.1"/>
   <circle class="fil4" cx="12940.85" cy="9612.36" r="362.1"/>
   <circle class="fil4" cx="14199.36" cy="9612.36" r="362.1"/>
  </g>
 </g>
</svg>
