<?xml version="1.0" encoding="utf-8"?>
<!-- Generator: Adobe Illustrator 25.0.0, SVG Export Plug-In . SVG Version: 6.00 Build 0)  -->
<svg version="1.1" id="Layer_1" xmlns:xodm="http://www.corel.com/coreldraw/odm/2003"
	 xmlns="http://www.w3.org/2000/svg" xmlns:xlink="http://www.w3.org/1999/xlink" x="0px" y="0px" viewBox="0 0 600 600"
	 style="enable-background:new 0 0 600 600;" xml:space="preserve">
<style type="text/css">
	
		.st0{fill-rule:evenodd;clip-rule:evenodd;fill:#FFFFFF;stroke:#000000;stroke-width:11.2499;stroke-linecap:round;stroke-linejoin:round;stroke-miterlimit:10;}
	.st1{fill:none;stroke:#000000;stroke-width:11.2499;stroke-linecap:round;stroke-linejoin:round;stroke-miterlimit:10;}
	.st2{fill-rule:evenodd;clip-rule:evenodd;}
</style>
<g id="Layer_x0020_1">
	<g id="Housa">
		<polygon class="st0" points="300,7.8 494.3,7.8 567.8,149.1 502.3,149.1 502.3,416.8 378.8,416.8 359.4,283 300,283 240.6,283 
			221.2,416.8 97.7,416.8 97.7,149.1 32.2,149.1 105.7,7.8 		"/>
		<line class="st1" x1="450.2" y1="149.1" x2="500.8" y2="149.1"/>
		<line class="st1" x1="97.7" y1="149.1" x2="148.3" y2="149.1"/>
	</g>
	<g id="Move">
		<line class="st1" x1="173.6" y1="199.7" x2="173.6" y2="265.1"/>
		<line class="st1" x1="140.9" y1="232.4" x2="206.3" y2="232.4"/>
	</g>
	<path d="M134.5,441.3h-11.1l-21.9,27v-27h-8.9v53.5h8.9v-14.7l5-5.7l16.5,20.3h11.7l-22.2-26.3L134.5,441.3z M168.1,494.9h9.3
		L156.8,442l-20.5,52.9h9.3l2.2-5.9h18.1L168.1,494.9L168.1,494.9z M156.8,461.6l6.4,18.4h-12.9L156.8,461.6L156.8,461.6z
		 M241.3,441.3h-9.2L212.6,483l-20.3-41.6h-9.1v53.5h8.9v-33.5l16.3,33.5h8.5l15.3-32.8v32.8h8.9L241.3,441.3L241.3,441.3z
		 M271,441.3h-17.8v53.5h8.9v-22.3h8.9c0,0,17.8,0,17.8-15.6C288.8,441.3,271,441.3,271,441.3L271,441.3z M271,463.6h-8.9v-13.4h8.9
		c0,0,8.9,0,8.9,6.7S271,463.6,271,463.6z M321.6,440.5c-35,0-35,54.5,0,54.5C356.5,494.9,356.4,440.5,321.6,440.5z M321.6,486.4
		c-23,0-22.9-37.2,0-37.2C344.6,449.1,344.6,486.4,321.6,486.4z M392.9,450.3v-8.9h-35.7v53.5h35.7v-8.9h-26.8v-13.4h22.3v-8.9
		h-22.3v-13.4L392.9,450.3L392.9,450.3z M446.5,441.3h-8.9v38.1l-26.7-38.1h-9v53.5h8.9v-38.1l26.7,38.1h9V441.3z M483.7,463.6v8.9
		h13.4v7.7c-3.1,3.4-7.6,5.6-12.6,5.6c-9.3,0-16.8-5.1-16.8-17.1c0-10.8,7.5-17.1,16.8-17.1c4.6,0,8.9,1.8,11.9,4.8l5.9-5.8
		c-4.5-4.5-10.8-7.2-17.8-7.2c-13.9,0-25.2,10.7-25.2,25.3c0,16.1,10.6,25.3,24.1,25.3c6,0,10.2-1.4,14.3-5.1l0.4,4.5h7.8v-29.7
		H483.7L483.7,463.6z"/>
	<path d="M153.5,543.9v13.4h14.9v11.7c-5.1,5.8-12.4,9.3-20.7,9.3c-15.2,0-27.5-8.5-27.5-28.7c0-18.1,12.3-28.7,27.5-28.7
		c7.6,0,14.5,3.1,19.5,8l9.7-9.7c-7.4-7.6-17.7-12.2-29.1-12.2c-22.8,0-41.3,17.9-41.3,42.5c0,27,17.3,42.5,39.5,42.5
		c9.8,0,16.8-2.4,23.5-8.6l0.7,8h11.6v-47.6H153.5z M241.9,590.1h14.9l-33-84l-32.9,84h14.9l3.5-8.9h29l3.7,9.9L241.9,590.1z
		 M223.7,540.6l10,28.7h-20.1L223.7,540.6z M355.8,508.3h-16L310.6,573l-30.4-64.7h-13.6v83.3h13.4v-52.2l24.5,52.2h15l23-51.1v51.1
		h13.4L355.8,508.3L355.8,508.3z M430.1,521.6v-13.4h-56.5v81.8h56.5v-13.4h-41.6v-20.8h34.2v-13.4h-34.2v-20.8H430.1z M466.4,591.8
		c13.3,0,25.7-8.5,25.7-24.3c0-9.8-4.7-18.2-13.5-22.2c-5.9-2.7-11.7-2.7-12.3-2.7c-6.1,0-12-3.7-12-10.5c0-7.7,5.5-11.4,12-11.4
		c6.3,0,11.6,3.1,11.8,9.9h13.7c-0.2-14-11.2-23.7-25.5-23.7c-13.3,0-25.8,9.6-25.8,25.3c0,9.8,4.8,17.1,13.5,21.1
		c6,2.7,11.7,2.7,12.4,2.7c5.5,0.2,12,4.6,12,11.6c0,6.5-5.7,10.5-12,10.5c-6.1,0-11.8-3.4-12-10.3h-13.8
		C440.8,583.2,452.1,591.5,466.4,591.8L466.4,591.8z"/>
	<g id="Buttons2">
		<circle class="st2" cx="425.2" cy="205.8" r="15.3"/>
		<circle class="st2" cx="425.2" cy="258.9" r="15.3"/>
		<circle class="st2" cx="398.6" cy="232.4" r="15.3"/>
		<circle class="st2" cx="451.7" cy="232.4" r="15.3"/>
	</g>
</g>
</svg>
